
<!-- Generator: visioncortex VTracer 0.6.4 -->
<svg version="1.1" xmlns="http://www.w3.org/2000/svg" viewBox="0 0 1024 1024" preserveAspectRatio="xMidYMid meet">
<path d="M0 0 C337.92 0 675.84 0 1024 0 C1024 337.92 1024 675.84 1024 1024 C686.08 1024 348.16 1024 0 1024 C0 686.08 0 348.16 0 0 Z " fill="#FCFDFD" transform="translate(0,0)"/>
<path d="M0 0 C5.141 0.009 10.282 0 15.423 -0.006 C25.455 -0.015 35.487 -0.009 45.519 0.003 C57.229 0.017 68.939 0.015 80.649 0.013 C101.554 0.01 122.458 0.022 143.363 0.041 C163.6 0.06 183.837 0.067 204.074 0.062 C226.176 0.056 248.278 0.056 270.38 0.067 C272.741 0.069 275.101 0.07 277.462 0.071 C278.623 0.072 279.784 0.072 280.98 0.073 C289.123 0.077 297.266 0.076 305.41 0.074 C315.342 0.072 325.275 0.078 335.207 0.092 C340.265 0.099 345.323 0.103 350.381 0.099 C401.124 0.058 449.619 3.805 488.328 40.378 C489.36 41.331 489.36 41.331 490.414 42.303 C516.221 66.937 526.441 102.592 528.438 137.205 C528.501 138.262 528.501 138.262 528.565 139.34 C529.577 156.709 529.608 174.068 529.575 191.46 C529.568 196.121 529.573 200.781 529.577 205.442 C529.581 214.52 529.576 223.598 529.567 232.676 C529.556 243.287 529.556 253.897 529.557 264.508 C529.557 283.457 529.548 302.407 529.534 321.356 C529.52 339.674 529.512 357.993 529.513 376.312 C529.513 377.441 529.513 378.571 529.513 379.735 C529.513 380.863 529.513 381.991 529.513 383.153 C529.514 404.117 529.508 425.082 529.499 446.046 C529.496 453.415 529.495 460.783 529.495 468.152 C529.494 477.145 529.489 486.138 529.48 495.132 C529.476 499.706 529.473 504.281 529.474 508.855 C529.477 524.565 529.48 540.269 528.924 555.97 C528.875 557.458 528.875 557.458 528.824 558.976 C527.593 588.527 519.111 618.465 501.328 642.378 C500.716 643.212 500.103 644.046 499.472 644.905 C475.534 676.148 440.318 692.11 401.995 697.529 C388.631 699.245 375.271 699.525 361.821 699.511 C360.101 699.513 358.382 699.515 356.663 699.518 C351.979 699.524 347.295 699.524 342.611 699.523 C337.543 699.523 332.476 699.528 327.408 699.533 C317.496 699.541 307.583 699.544 297.671 699.545 C289.609 699.545 281.547 699.547 273.485 699.55 C250.594 699.559 227.703 699.564 204.812 699.563 C202.964 699.563 202.964 699.563 201.078 699.563 C199.845 699.563 198.611 699.563 197.34 699.563 C177.35 699.562 157.359 699.572 137.369 699.586 C116.81 699.6 96.251 699.607 75.692 699.606 C64.163 699.606 52.634 699.609 41.105 699.62 C31.29 699.629 21.474 699.631 11.659 699.624 C6.658 699.621 1.657 699.621 -3.344 699.629 C-7.934 699.637 -12.525 699.636 -17.116 699.627 C-18.764 699.626 -20.411 699.627 -22.059 699.633 C-37.718 699.683 -53.273 698.485 -68.61 695.19 C-69.612 694.976 -70.614 694.761 -71.647 694.541 C-98.198 688.603 -119.893 677.047 -139.672 658.378 C-140.433 657.681 -141.193 656.985 -141.977 656.268 C-148.265 650.307 -153.008 643.618 -157.672 636.378 C-158.279 635.466 -158.886 634.555 -159.512 633.616 C-177.859 604.451 -180.842 568.605 -180.806 535.05 C-180.808 533.374 -180.81 531.699 -180.813 530.023 C-180.819 525.469 -180.819 520.916 -180.818 516.362 C-180.817 511.43 -180.823 506.499 -180.828 501.568 C-180.836 491.925 -180.839 482.282 -180.839 472.639 C-180.84 464.793 -180.842 456.946 -180.845 449.1 C-180.854 426.805 -180.858 404.509 -180.858 382.214 C-180.858 381.015 -180.858 379.815 -180.857 378.579 C-180.857 377.378 -180.857 376.177 -180.857 374.94 C-180.857 355.49 -180.866 336.041 -180.881 316.591 C-180.895 296.572 -180.902 276.554 -180.901 256.535 C-180.901 245.315 -180.903 234.096 -180.914 222.876 C-180.923 213.321 -180.925 203.767 -180.919 194.212 C-180.915 189.348 -180.915 184.485 -180.924 179.621 C-180.994 137.96 -180.363 94.97 -155.672 59.378 C-155.037 58.422 -154.401 57.467 -153.746 56.483 C-150.21 51.249 -150.21 51.249 -148.672 49.378 C-148.012 49.378 -147.352 49.378 -146.672 49.378 C-146.443 48.825 -146.213 48.271 -145.977 47.702 C-133.857 26.11 -102.043 12.954 -79.672 6.378 C-53.891 -0.836 -26.511 -0.064 0 0 Z " fill="#154B87" transform="translate(337.67215943336487,162.62248504161835)"/>
<path d="M0 0 C6.37 4.904 12.042 10.797 17.75 16.438 C19.005 17.649 19.005 17.649 20.285 18.885 C25.64 24.184 29.816 28.915 31.566 36.434 C31.549 45.122 27.468 50.732 21.5 56.75 C20.005 58.172 18.505 59.588 17 61 C13.303 64.631 9.755 68.373 6.25 72.188 C5.73 72.752 5.21 73.316 4.674 73.898 C0.694 78.226 -3.246 82.589 -7.16 86.977 C-10.576 90.734 -10.576 90.734 -12 92 C-12.66 92 -13.32 92 -14 92 C-14.223 92.552 -14.446 93.103 -14.676 93.672 C-16.416 96.731 -18.658 98.807 -21.188 101.25 C-24.355 104.316 -27.369 107.387 -30.238 110.734 C-35.369 116.669 -41.032 122.077 -46.617 127.578 C-51.044 131.964 -55.3 136.403 -59.355 141.133 C-62.089 144.237 -65.046 147.108 -68 150 C-72.343 154.292 -76.547 158.615 -80.496 163.277 C-82.598 165.685 -84.879 167.891 -87.16 170.127 C-88.933 171.931 -90.578 173.794 -92.219 175.719 C-96.579 180.734 -101.297 185.349 -106.039 190 C-109.97 193.885 -113.679 197.875 -117.285 202.062 C-120.049 205.185 -123.022 208.084 -126 211 C-130.212 215.164 -134.273 219.353 -138.098 223.879 C-140.782 226.871 -143.643 229.674 -146.5 232.5 C-151.848 237.794 -156.893 243.229 -161.68 249.039 C-162.488 250.01 -162.488 250.01 -163.312 251 C-163.783 251.577 -164.254 252.155 -164.738 252.75 C-166 254 -166 254 -168 254 C-168.214 254.54 -168.427 255.081 -168.648 255.638 C-170.487 258.852 -173.007 261.234 -175.637 263.797 C-176.194 264.349 -176.752 264.902 -177.327 265.471 C-179.109 267.236 -180.898 268.993 -182.688 270.75 C-185.028 273.054 -187.365 275.361 -189.699 277.672 C-190.259 278.226 -190.819 278.779 -191.396 279.35 C-194.966 282.904 -198.368 286.546 -201.583 290.429 C-205.21 294.45 -209.483 297.606 -215 298 C-215.969 298.11 -215.969 298.11 -216.957 298.223 C-224.162 298.715 -229.999 296.359 -235.533 291.713 C-239.566 288.019 -243.341 284.07 -247.125 280.125 C-249.373 277.81 -251.628 275.503 -253.883 273.195 C-254.697 272.359 -254.697 272.359 -255.527 271.506 C-258.836 268.124 -262.249 264.97 -265.859 261.91 C-271.751 256.654 -277.18 250.866 -282.728 245.252 C-288.42 239.498 -294.07 233.789 -300.238 228.539 C-303.927 225.316 -307.289 221.75 -310.711 218.25 C-313.646 215.275 -316.623 212.42 -319.793 209.695 C-324.86 205.318 -329.578 200.606 -334.312 195.875 C-335.205 194.995 -336.098 194.114 -337.018 193.207 C-337.874 192.352 -338.731 191.498 -339.613 190.617 C-340.77 189.466 -340.77 189.466 -341.95 188.292 C-345.293 184.554 -347.341 181.199 -347.875 176.188 C-348.026 175.002 -348.026 175.002 -348.18 173.793 C-347.689 166.171 -344.09 161.333 -338.863 156.199 C-338.265 155.596 -337.667 154.993 -337.05 154.372 C-335.79 153.108 -334.523 151.85 -333.25 150.598 C-331.318 148.692 -329.413 146.761 -327.51 144.826 C-326.275 143.595 -325.039 142.365 -323.801 141.137 C-322.958 140.279 -322.958 140.279 -322.098 139.404 C-317.592 135.026 -312.904 132.276 -306.461 131.82 C-305.773 131.921 -305.084 132.021 -304.375 132.125 C-303.681 132.21 -302.988 132.295 -302.273 132.383 C-294.535 134.484 -290.034 139.646 -284.625 145.25 C-282.995 146.924 -281.362 148.596 -279.727 150.266 C-279.011 151.006 -278.295 151.746 -277.557 152.509 C-275.502 154.511 -273.42 156.387 -271.248 158.258 C-266.731 162.178 -262.514 166.359 -258.301 170.602 C-257.503 171.401 -256.705 172.201 -255.882 173.024 C-253.357 175.555 -250.835 178.09 -248.312 180.625 C-246.609 182.334 -244.905 184.042 -243.201 185.75 C-240.078 188.881 -236.957 192.013 -233.837 195.147 C-233.171 195.815 -232.504 196.483 -231.817 197.172 C-230.698 198.298 -229.582 199.428 -228.473 200.564 C-225.847 203.244 -223.308 205.204 -220 207 C-211.493 198.742 -211.493 198.742 -203.5 190 C-199.835 185.676 -195.785 181.759 -191.758 177.777 C-188.894 174.934 -186.111 172.081 -183.5 169 C-179.877 164.724 -175.887 160.832 -171.881 156.918 C-168.339 153.433 -165.039 149.803 -161.79 146.044 C-158.823 142.656 -155.72 139.396 -152.625 136.125 C-147.517 130.715 -142.5 125.257 -137.637 119.625 C-136 118 -136 118 -134 118 C-133.773 117.459 -133.546 116.917 -133.312 116.359 C-131.587 113.258 -129.387 110.873 -127 108.25 C-126.549 107.743 -126.098 107.237 -125.633 106.715 C-124.466 105.435 -123.237 104.212 -122 103 C-121.34 103 -120.68 103 -120 103 C-119.787 102.459 -119.575 101.917 -119.355 101.359 C-117.51 98.148 -114.962 95.792 -112.312 93.25 C-108.267 89.344 -104.479 85.314 -100.802 81.058 C-97.792 77.62 -94.643 74.315 -91.5 71 C-90.095 69.513 -88.69 68.026 -87.285 66.539 C-86.576 65.789 -85.868 65.039 -85.137 64.267 C-83.043 62.045 -80.955 59.817 -78.871 57.586 C-78.21 56.878 -77.549 56.171 -76.867 55.441 C-75.623 54.109 -74.379 52.776 -73.137 51.441 C-70.235 48.338 -67.3 45.283 -64.285 42.289 C-61.917 39.937 -59.655 37.551 -57.5 35 C-55.254 32.394 -52.954 29.911 -50.5 27.5 C-48.066 25.109 -45.786 22.65 -43.562 20.062 C-39.911 15.828 -35.985 11.918 -32 8 C-31.113 7.092 -30.226 6.185 -29.312 5.25 C-20.752 -3.079 -10.891 -5.709 0 0 Z " fill="#FCFCFC" transform="translate(679,257)"/>
<path d="M0 0 C5.94 0 11.88 0 18 0 C18.557 2.248 19.114 4.496 19.688 6.812 C20.791 11.265 21.908 15.711 23.133 20.133 C27.479 35.925 30.689 51.966 34 68 C37.225 61.339 38.819 54.356 40.574 47.191 C40.906 45.856 41.238 44.521 41.57 43.186 C42.439 39.694 43.3 36.2 44.159 32.706 C45.04 29.131 45.928 25.559 46.814 21.986 C48.55 14.993 50.277 7.997 52 1 C57.61 1 63.22 1 69 1 C71.82 8.835 73.765 16.848 75.731 24.927 C79.098 38.745 82.659 52.45 87 66 C87.33 66 87.66 66 88 66 C93.098 44.021 98.16 22.037 103 0 C108.94 0 114.88 0 121 0 C119.874 9.011 119.874 9.011 118.949 13.066 C118.747 13.956 118.546 14.846 118.338 15.763 C118.123 16.687 117.909 17.611 117.688 18.562 C117.465 19.534 117.242 20.506 117.012 21.507 C115.473 28.148 113.768 34.723 111.965 41.297 C110.867 45.511 109.922 49.745 109 54 C107.543 60.711 105.892 67.339 104.082 73.965 C101.918 81.94 99.987 89.979 98 98 C92.06 98 86.12 98 80 98 C77.585 91.031 75.618 84.009 73.75 76.875 C69.926 62.462 65.794 48.124 61 34 C56.119 49.27 51.933 64.65 48.022 80.191 C47.836 80.928 47.65 81.665 47.458 82.424 C47.11 83.806 46.763 85.188 46.42 86.572 C45.439 90.469 44.276 94.171 43 98 C36.73 98 30.46 98 24 98 C19.253 79.686 14.526 61.37 10 43 C9.806 42.212 9.612 41.425 9.412 40.613 C8.044 35.065 6.681 29.516 5.321 23.966 C4.858 22.077 4.395 20.188 3.93 18.3 C3.277 15.64 2.626 12.98 1.977 10.32 C1.677 9.105 1.677 9.105 1.371 7.865 C0 2.229 0 2.229 0 0 Z " fill="#FBFCFC" transform="translate(503,622)"/>
<path d="M0 0 C1.11 0.002 1.11 0.002 2.243 0.005 C9.67 0.17 15.112 2.267 21.438 6.062 C31.036 16.21 30.625 27.602 30.625 41.375 C15.115 41.705 -0.395 42.035 -16.375 42.375 C-14.865 51.138 -14.865 51.138 -9.375 56.375 C-4.818 58.502 -0.333 59.028 4.625 58.375 C7.649 57.177 9.868 56.223 12.042 53.788 C14.039 52.005 14.997 52.022 17.637 52.082 C18.394 52.092 19.151 52.101 19.932 52.111 C20.717 52.136 21.503 52.162 22.312 52.188 C23.508 52.208 23.508 52.208 24.729 52.229 C26.694 52.264 28.66 52.318 30.625 52.375 C26.958 61.594 23.147 67.052 14.027 71.395 C4.448 75.304 -7.212 74.344 -16.715 70.699 C-24.025 67.06 -28.509 61.965 -31.375 54.375 C-31.731 53.535 -32.087 52.694 -32.453 51.828 C-35.474 40.512 -35.245 24.653 -29.375 14.375 C-29.013 13.707 -28.651 13.04 -28.277 12.352 C-24.144 5.71 -18.014 2.518 -10.531 0.77 C-7.016 0.126 -3.568 -0.008 0 0 Z " fill="#FBFCFC" transform="translate(761.375,647.625)"/>
<path d="M0 0 C6.28 4.419 10.043 9.949 11.977 17.391 C12.367 21.449 12.327 25.473 12.27 29.547 C12.265 30.69 12.261 31.833 12.257 33.01 C12.24 36.637 12.202 40.264 12.164 43.891 C12.149 46.359 12.135 48.828 12.123 51.297 C12.09 57.328 12.038 63.359 11.977 69.391 C7.027 69.391 2.077 69.391 -3.023 69.391 C-3.518 64.936 -3.518 64.936 -4.023 60.391 C-4.58 60.945 -5.137 61.499 -5.711 62.07 C-10.592 66.704 -14.229 69.842 -21.023 70.391 C-22.435 70.511 -22.435 70.511 -23.875 70.633 C-31.633 70.967 -37.659 69.816 -43.84 64.965 C-47.794 61.277 -49.726 57.9 -50.359 52.559 C-50.444 46.067 -50.332 40.535 -46.023 35.391 C-40.137 30.372 -34.956 28.269 -27.223 28.258 C-26.327 28.257 -25.432 28.255 -24.51 28.254 C-23.124 28.26 -23.124 28.26 -21.711 28.266 C-20.799 28.262 -19.887 28.258 -18.947 28.254 C-13.547 28.262 -8.366 28.601 -3.023 29.391 C-3.253 27.471 -3.508 25.555 -3.773 23.641 C-3.913 22.573 -4.052 21.506 -4.195 20.406 C-5.143 16.955 -6.283 15.629 -9.023 13.391 C-11.95 11.927 -14.578 12.22 -17.836 12.203 C-19.671 12.182 -19.671 12.182 -21.543 12.16 C-24.921 12.384 -27.092 12.722 -30.023 14.391 C-30.683 15.711 -31.343 17.031 -32.023 18.391 C-36.973 18.391 -41.923 18.391 -47.023 18.391 C-45.604 8.455 -45.604 8.455 -42.023 4.391 C-30.806 -3.915 -12.86 -6.453 0 0 Z " fill="#FCFCFD" transform="translate(349.0234375,650.609375)"/>
<path d="M0 0 C5.28 0 10.56 0 16 0 C16.33 18.15 16.66 36.3 17 55 C28.244 42.476 28.244 42.476 38.325 28.878 C40 27 40 27 42.177 26.546 C42.999 26.567 43.821 26.588 44.668 26.609 C45.561 26.622 46.453 26.635 47.373 26.648 C48.302 26.682 49.231 26.715 50.188 26.75 C51.598 26.777 51.598 26.777 53.037 26.805 C55.359 26.852 57.679 26.918 60 27 C57.517 30.867 54.945 34.327 51.812 37.688 C42.605 47.739 42.605 47.739 35 59 C35.655 59.825 36.31 60.65 36.984 61.5 C42.686 68.708 48.279 75.985 53.771 83.354 C57.079 87.788 60.443 92.17 63.891 96.496 C65 98 65 98 65 99 C48.563 100.342 48.563 100.342 43.449 97.664 C41.305 95.258 39.712 92.737 38 90 C36.182 87.505 34.326 85.04 32.472 82.572 C29.607 78.744 26.802 74.874 24 71 C20.336 73.232 17.453 75.276 16.329 79.558 C16.088 82.514 16.03 85.409 16.062 88.375 C16.046 89.397 16.03 90.419 16.014 91.473 C15.979 93.982 15.985 96.491 16 99 C10.72 99 5.44 99 0 99 C0 66.33 0 33.66 0 0 Z " fill="#FCFDFD" transform="translate(440,621)"/>
<path d="M0 0 C25.08 0 50.16 0 76 0 C76 5.28 76 10.56 76 16 C66.76 16 57.52 16 48 16 C48 42.73 48 69.46 48 97 C42.06 97 36.12 97 30 97 C30 70.27 30 43.54 30 16 C20.1 16 10.2 16 0 16 C0 10.72 0 5.44 0 0 Z " fill="#F6F8FA" transform="translate(230,623)"/>
<path d="M0 0 C4.038 3.301 6.943 6.449 8.723 11.453 C8.723 12.773 8.723 14.093 8.723 15.453 C6.158 15.589 3.601 15.687 1.035 15.766 C0.314 15.808 -0.407 15.849 -1.15 15.893 C-5.383 15.989 -6.775 15.889 -10.109 12.996 C-11.183 11.737 -11.183 11.737 -12.277 10.453 C-17.67 8.656 -22.602 8.748 -27.84 10.953 C-29.046 11.696 -29.046 11.696 -30.277 12.453 C-30.695 15.327 -30.695 15.327 -30.277 18.453 C-26.163 21.745 -21.563 22.422 -16.527 23.391 C-7.371 25.3 1.148 27.409 7.723 34.453 C11.259 40.865 11.276 47.421 9.723 54.453 C7.816 59.769 4.739 62.899 -0.277 65.453 C-10.849 69.675 -24.299 70.397 -35.098 66.488 C-41.522 63.437 -45.666 59.861 -48.684 53.383 C-49.277 51.453 -49.277 51.453 -49.277 47.453 C-46.526 47.318 -43.781 47.219 -41.027 47.141 C-40.25 47.099 -39.473 47.057 -38.672 47.014 C-36.436 46.966 -34.466 46.986 -32.277 47.453 C-29.855 49.91 -29.855 49.91 -28.277 52.453 C-25.148 54.018 -21.835 53.679 -18.402 53.703 C-17.682 53.724 -16.961 53.744 -16.219 53.766 C-12.976 53.79 -10.675 53.673 -7.809 52.09 C-6.084 50.509 -6.084 50.509 -5.652 48.016 C-6.416 44.885 -7.695 44.051 -10.36 42.37 C-14.026 40.617 -17.982 40.201 -21.965 39.578 C-39.668 36.381 -39.668 36.381 -44.785 29.395 C-45.816 27.429 -46.602 25.564 -47.277 23.453 C-47.607 22.463 -47.937 21.473 -48.277 20.453 C-48.788 13.941 -47.896 8.533 -43.613 3.496 C-32.741 -6.791 -12.572 -8.539 0 0 Z " fill="#FAFBFC" transform="translate(709.27734375,652.546875)"/>
<path d="M0 0 C6.035 4.913 8.028 8.854 9.688 16.188 C6.915 16.322 4.149 16.422 1.375 16.5 C0.589 16.542 -0.196 16.584 -1.006 16.627 C-3.214 16.674 -5.156 16.668 -7.312 16.188 C-9.23 13.73 -9.23 13.73 -10.312 11.188 C-13.268 9.71 -15.962 10.017 -19.25 10 C-21.12 9.979 -21.12 9.979 -23.027 9.957 C-26.455 9.925 -26.455 9.925 -29.312 12.188 C-29.979 15.145 -29.979 15.145 -29.312 18.188 C-24.38 22.145 -17.904 22.871 -11.881 24.205 C-4.803 25.856 2.439 27.816 7.125 33.75 C7.598 34.329 8.071 34.908 8.559 35.504 C12.125 40.823 11.274 48.098 10.688 54.188 C9.091 58.876 6.497 61.955 2.312 64.562 C-4.499 67.616 -10.393 68.508 -17.75 68.438 C-18.558 68.445 -19.365 68.453 -20.197 68.461 C-28.803 68.433 -36.595 66.886 -43.312 61.188 C-47.008 56.751 -48.538 52.915 -49.312 47.188 C-46.561 47.052 -43.816 46.953 -41.062 46.875 C-40.285 46.833 -39.508 46.791 -38.707 46.748 C-36.474 46.7 -34.499 46.723 -32.312 47.188 C-30.078 49.582 -30.078 49.582 -28.312 52.188 C-23.215 54.922 -17.955 54.724 -12.312 54.188 C-7.94 52.749 -7.94 52.749 -5.312 49.25 C-5.312 46.666 -5.956 45.375 -7.312 43.188 C-11.664 41.323 -15.964 40.239 -20.594 39.324 C-39.052 35.647 -39.052 35.647 -45.312 27.625 C-47.912 21.289 -48.275 15.047 -45.75 8.625 C-42.642 2.268 -38.35 -1.351 -31.688 -3.688 C-20.748 -6.48 -9.887 -5.41 0 0 Z " fill="#FAFCFC" transform="translate(418.3125,652.8125)"/>
<path d="M0 0 C5.61 0 11.22 0 17 0 C17 23.76 17 47.52 17 72 C11.39 72 5.78 72 0 72 C0 48.24 0 24.48 0 0 Z " fill="#FDFDFD" transform="translate(633,648)"/>
<path d="M0 0 C5.577 4.913 5.653 7.534 6.625 15.312 C-3.605 15.312 -13.835 15.312 -24.375 15.312 C-24.375 6.812 -24.375 6.812 -20.375 2.312 C-14.035 -2.31 -7.096 -3.548 0 0 Z " fill="#154A86" transform="translate(769.375,661.6875)"/>
<path d="M0 0 C0.691 -0.012 1.382 -0.024 2.094 -0.037 C6.845 -0.051 10.738 0.693 15.25 2.188 C14.615 7.537 12.394 9.379 8.363 12.672 C3.23 16.353 -1.645 16.672 -7.75 16.188 C-11.336 14.551 -12.543 13.498 -14.75 10.188 C-15.125 7.75 -15.125 7.75 -14.75 5.188 C-10.56 -0.014 -6.293 0.006 0 0 Z " fill="#144684" transform="translate(329.75,690.8125)"/>
<path d="M0 0 C3.438 1.5 3.438 1.5 6 4 C7.454 7.914 7.42 10.951 5.875 14.812 C3.659 17.398 2.181 18.728 -1 20 C-5.828 20 -7.99 19.673 -12 17 C-14.374 13.439 -14.664 11.29 -14.434 7.09 C-13.808 4.073 -12.478 2.749 -10 1 C-6.775 -0.612 -3.496 -0.448 0 0 Z " fill="#FAFBFC" transform="translate(646,620)"/>
<path d="M0 0 C2 1 2 1 2 1 Z M-2 1 C-1.34 1.33 -0.68 1.66 0 2 C-0.99 2 -1.98 2 -3 2 C-2.67 1.67 -2.34 1.34 -2 1 Z M-6 4 C-5.34 4.33 -4.68 4.66 -4 5 C-4.525 5.452 -5.049 5.905 -5.59 6.371 C-14.456 14.175 -22.698 22.604 -31 31 C-31 28 -31 28 -29 25 C-28.34 25 -27.68 25 -27 25 C-26.664 24.176 -26.664 24.176 -26.32 23.336 C-21.922 15.554 -13.304 8.96 -6 4 Z M-33 31 C-33 34 -33 34 -33 34 Z M-35 34 C-34.67 34.66 -34.34 35.32 -34 36 C-34.66 35.67 -35.32 35.34 -36 35 C-35.67 34.67 -35.34 34.34 -35 34 Z " fill="#0B3277" transform="translate(218,187)"/>
<path d="M0 0 C2 3 2 3 2 7 C-8.23 7 -18.46 7 -29 7 C-29 5.35 -29 3.7 -29 2 C-28.67 2.99 -28.34 3.98 -28 5 C-18.76 5 -9.52 5 0 5 C0 3.35 0 1.7 0 0 Z " fill="#113F7F" transform="translate(774,670)"/>
<path d="M0 0 C2.965 2.445 3.556 4.446 4.188 8.188 C4.346 9.089 4.505 9.99 4.668 10.918 C4.832 11.949 4.832 11.949 5 13 C2.778 10.778 2.074 8.915 1 6 C0.34 7.98 -0.32 9.96 -1 12 C-1.33 12 -1.66 12 -2 12 C-1 3.429 -1 3.429 0 0 Z " fill="#13367A" transform="translate(563,655)"/>
<path d="M0 0 C0.33 0 0.66 0 1 0 C0.25 7.625 0.25 7.625 -2 11 C-3.354 8.291 -3.065 5.991 -3 3 C-2.34 3 -1.68 3 -1 3 C-0.67 2.01 -0.34 1.02 0 0 Z " fill="#103075" transform="translate(539,681)"/>
<path d="M0 0 C0.33 0 0.66 0 1 0 C1.25 6.625 1.25 6.625 -1 10 C-2.25 3.375 -2.25 3.375 0 0 Z " fill="#0A2A71" transform="translate(591,681)"/>
</svg>